ply
format ascii 1.0
element vertex 24
property float x
property float y
property float z
element face 12
property list uchar int vertex_indices
end_header
-0.0460751 0.6 0.573007
-0.0460751 -2.98023e-08 0.573007
0.124253 0.0 0.00310463
0.124253 0.6 0.00310463
0.533009 0.0 0.746079
0.533009 0.6 0.746079
0.703337 0.6 0.176177
0.703337 2.98023e-08 0.176177
0.533009 0.6 0.746079
-0.0460751 0.6 0.573007
0.124253 0.6 0.00310463
0.703337 0.6 0.176177
0.703337 2.98023e-08 0.176177
0.124253 0.0 0.00310463
-0.0460751 -2.98023e-08 0.573007
0.533009 0.0 0.746079
0.533009 0.0 0.746079
-0.0460751 -2.98023e-08 0.573007
-0.0460751 0.6 0.573007
0.533009 0.6 0.746079
0.703337 0.6 0.176177
0.124253 0.6 0.00310463
0.124253 0.0 0.00310463
0.703337 2.98023e-08 0.176177
3 0 2 1
3 0 3 2
3 4 6 5
3 4 7 6
3 8 10 9
3 8 11 10
3 12 14 13
3 12 15 14
3 16 18 17
3 16 19 18
3 20 22 21
3 20 23 22
