ply
format ascii 1.0
element vertex 24
property float x
property float y
property float z
element face 12
property list uchar int vertex_indices
end_header
-0.720444 1.2 -0.473882
-0.720444 0.0 -0.473882
-0.146892 0.0 -0.673479
-0.146892 1.2 -0.673479
-0.523986 0.0 0.0906493
-0.523986 1.2 0.0906492
0.0495656 1.2 -0.108948
0.0495656 0.0 -0.108948
-0.523986 1.2 0.0906492
-0.720444 1.2 -0.473882
-0.146892 1.2 -0.673479
0.0495656 1.2 -0.108948
0.0495656 0.0 -0.108948
-0.146892 0.0 -0.673479
-0.720444 0.0 -0.473882
-0.523986 0.0 0.0906493
-0.523986 0.0 0.0906493
-0.720444 0.0 -0.473882
-0.720444 1.2 -0.473882
-0.523986 1.2 0.0906492
0.0495656 1.2 -0.108948
-0.146892 1.2 -0.673479
-0.146892 0.0 -0.673479
0.0495656 0.0 -0.108948
3 0 2 1
3 0 3 2
3 4 6 5
3 4 7 6
3 8 10 9
3 8 11 10
3 12 14 13
3 12 15 14
3 16 18 17
3 16 19 18
3 20 22 21
3 20 23 22
